# This file uses centimeters as units for non-parametric coordinates.

mtllib Picture Frame.mtl
g default
v -1.784986 3.468177 11.250044
v 1.784986 3.468177 11.250043
v -1.784986 7.003850 11.250044
v 1.784986 7.003850 11.250044
v -2.003402 7.145729 11.021481
v -1.928241 7.274019 11.021481
v -1.928241 7.145729 10.923217
v 1.928241 7.145729 10.923217
v 1.928241 7.274019 11.021481
v 2.003402 7.145729 11.021481
v -2.003402 3.326298 11.021481
v -1.928241 3.326298 10.923217
v -1.928241 3.198009 11.021481
v 1.928241 3.198009 11.021481
v 1.928241 3.326298 10.923217
v 2.003402 3.326298 11.021481
v -1.928241 3.262147 11.391078
v -1.928241 3.198009 11.279284
v -2.003402 3.326298 11.279284
v -1.965825 3.326298 11.391078
v 1.928241 3.262147 11.391078
v 1.928241 3.198009 11.279284
v -1.965825 7.145729 11.391078
v -2.003402 7.145729 11.279284
v 1.965825 3.326298 11.391078
v 2.003402 3.326298 11.279284
v 1.965825 7.145729 11.391078
v 2.003402 7.145729 11.279284
v -1.928241 7.274019 11.279284
v -1.928241 7.209881 11.391078
v 1.928241 7.209881 11.391078
v 1.928241 7.274019 11.279284
vt 0.375000 0.507869
vt 0.375000 0.742131
vt 0.625000 0.507869
vt 0.625000 0.742131
vt 0.379690 0.742131
vt 0.620310 0.742131
vt 0.379690 0.507869
vt 0.620310 0.507869
vt 0.625000 0.437506
vt 0.379690 0.000000
vt 0.620310 0.000000
vt 0.378305 0.937506
vt 0.376429 0.937506
vt 0.268321 0.007869
vt 0.622632 0.937506
vt 0.625000 0.893321
vt 0.624508 0.937506
vt 0.375000 0.356679
vt 0.375492 0.312494
vt 0.377368 0.312494
vt 0.731679 0.242131
vt 0.623571 0.312494
vt 0.375000 0.893321
vt 0.375000 0.812494
vt 0.379690 0.812494
vt 0.620310 0.003934
vt 0.346094 0.007869
vt 0.620310 0.893321
vt 0.625000 0.812494
vt 0.620310 0.007869
vt 0.653905 0.242131
vt 0.379690 0.356679
vt 0.375000 0.437506
vt 0.379690 0.277316
vt 0.620310 0.242131
vt 0.625000 0.356679
vt 0.620310 0.437506
vt 0.620310 0.356679
vt 0.379690 0.437506
vt 0.620310 0.812494
vt 0.379690 0.893321
vt 0.731679 0.007869
vt 0.812506 0.007869
vt 0.812506 0.242131
vt 0.187494 0.007869
vt 0.268321 0.242131
vt 0.187494 0.242131
vt 0.379690 0.003934
vt 0.379690 0.007869
vt 0.653906 0.007869
vt 0.346095 0.242131
vt 0.379690 0.242131
vt 0.620310 0.277316
vt 0.002767 1.002190
vt 0.997233 1.002190
vt 0.997233 -0.000208
vt 0.002767 -0.000208
vn -0.794290 0.000000 -0.607539
vn -0.794290 0.000000 -0.607539
vn -0.794290 0.000000 -0.607539
vn -0.794290 0.000000 -0.607539
vn 0.000000 0.608075 -0.793879
vn 0.000000 0.608075 -0.793879
vn 0.000000 0.608075 -0.793879
vn 0.000000 0.608075 -0.793879
vn 0.794290 -0.000000 -0.607539
vn 0.794290 -0.000000 -0.607539
vn 0.794290 -0.000000 -0.607539
vn 0.794290 -0.000000 -0.607539
vn 0.000000 -0.608077 -0.793878
vn 0.000000 -0.608077 -0.793878
vn 0.000000 -0.608077 -0.793878
vn 0.000000 -0.608077 -0.793878
vn 0.000000 -0.000000 1.000000
vn 0.000000 -0.000000 1.000000
vn 0.000000 -0.000000 1.000000
vn 0.000000 -0.000000 1.000000
vn 0.000000 -0.000000 -1.000000
vn 0.000000 -0.000000 -1.000000
vn 0.000000 -0.000000 -1.000000
vn 0.000000 -0.000000 -1.000000
vn -0.720136 0.421903 -0.550820
vn -0.720136 0.421903 -0.550820
vn -0.720136 0.421903 -0.550820
vn 0.720136 0.421903 -0.550820
vn 0.720136 0.421903 -0.550820
vn 0.720136 0.421903 -0.550820
vn -0.720135 -0.421904 -0.550820
vn -0.720135 -0.421904 -0.550820
vn -0.720135 -0.421904 -0.550820
vn 0.720135 -0.421904 -0.550819
vn 0.720135 -0.421904 -0.550820
vn 0.720135 -0.421904 -0.550820
vn 0.000000 0.049994 0.998750
vn 0.000000 -0.985275 0.170980
vn 0.000000 -0.985275 0.170980
vn 0.000000 0.049994 0.998750
vn -0.860785 -0.504307 0.068728
vn -0.489119 -0.286559 0.823800
vn -0.442117 -0.259022 0.858743
vn -0.860697 -0.504255 0.070195
vn -0.994872 0.000000 0.101147
vn 0.063557 0.000000 0.997978
vn 0.063557 0.000000 0.997978
vn -0.994872 0.000000 0.101147
vn 0.489119 -0.286558 0.823800
vn 0.860785 -0.504307 0.068728
vn 0.860697 -0.504255 0.070195
vn 0.442117 -0.259022 0.858743
vn -0.860698 0.504253 0.070194
vn -0.442116 0.259021 0.858744
vn -0.489118 0.286558 0.823801
vn -0.860786 0.504305 0.068727
vn -0.063557 -0.000000 0.997978
vn 0.994871 0.000000 0.101147
vn 0.994871 0.000000 0.101147
vn -0.063557 -0.000000 0.997978
vn 0.442116 0.259021 0.858744
vn 0.860698 0.504253 0.070195
vn 0.860786 0.504305 0.068727
vn 0.489118 0.286558 0.823801
vn 0.000000 0.985275 0.170980
vn 0.000000 -0.049993 0.998750
vn 0.000000 -0.049993 0.998750
vn 0.000000 0.985275 0.170980
vn -0.862826 -0.505502 0.000000
vn -0.862826 -0.505502 0.000000
vn 0.000000 0.564865 0.825183
vn 0.000000 0.564865 0.825183
vn 0.614976 0.000000 0.788546
vn 0.614976 0.000000 0.788546
vn 0.862826 -0.505502 0.000000
vn 0.862826 -0.505502 0.000000
vn -0.614976 -0.000000 0.788546
vn -0.614976 -0.000000 0.788546
vn -0.862826 0.505500 0.000000
vn -0.862826 0.505500 0.000000
vn 0.000000 -0.564864 0.825184
vn 0.000000 -0.564864 0.825184
vn 0.862826 0.505500 0.000000
vn 0.862826 0.505500 0.000000
vn 0.000000 1.000000 0.000000
vn 0.000000 1.000000 0.000000
vn 0.000000 -1.000000 0.000000
vn 0.000000 -1.000000 0.000000
vn 1.000000 0.000000 0.000000
vn 1.000000 0.000000 0.000000
vn -1.000000 0.000000 0.000000
vn -1.000000 0.000000 0.000000
vn 0.454256 0.266134 0.850191
vn -0.454256 0.266136 0.850190
vn 0.454255 -0.266132 0.850192
vn -0.454255 -0.266132 0.850192
s off
g textureEditorIsolateSelectSet pCube1
usemtl lambert3SG
f 5/1/1 7/7/2 12/5/3 11/2/4
f 7/7/5 6/39/6 9/37/7 8/8/8
f 8/8/9 10/3/10 16/4/11 15/6/12
f 13/25/13 12/5/14 15/6/15 14/40/16
usemtl lambert2SG
f 1/57/17 2/56/18 4/55/19 3/54/20
usemtl lambert3SG
f 7/7/21 8/8/22 15/6/23 12/5/24
f 5/33/25 6/39/26 7/7/27
f 8/8/28 9/37/29 10/9/30
f 11/2/31 12/5/32 13/25/33
f 14/40/34 15/6/35 16/4/36
s 1
f 17/48/37 18/10/38 22/11/39 21/26/40
s 2
f 18/41/41 17/12/42 20/13/43 19/23/44
s 3
f 19/14/45 20/27/46 23/51/47 24/46/48
s 4
f 21/15/49 22/28/50 26/16/51 25/17/52
s 5
f 24/18/53 23/19/54 30/20/55 29/32/56
s 6
f 25/50/57 26/42/58 28/21/59 27/31/60
s 7
f 27/22/61 28/36/62 32/38/63 31/53/64
s 8
f 29/32/65 30/34/66 31/53/67 32/38/68
s 2
f 18/41/41 19/23/44 11/24/69 13/25/70
s 1
f 1/49/71 17/48/37 21/26/40 2/30/72
s 3
f 20/27/46 1/49/73 3/52/74 23/51/47
s 4
f 26/16/51 22/28/50 14/40/75 16/29/76
s 6
f 2/30/77 25/50/57 27/31/60 4/35/78
s 5
f 24/18/53 29/32/56 6/39/79 5/33/80
s 8
f 30/34/66 3/52/81 4/35/82 31/53/67
s 7
f 32/38/63 28/36/62 10/9/83 9/37/84
s 8
f 29/32/65 32/38/68 9/37/85 6/39/86
s 1
f 13/25/87 14/40/88 22/28/39 18/41/38
s 6
f 26/42/58 16/43/89 10/44/90 28/21/59
s 3
f 11/45/91 19/14/45 24/46/48 5/47/92
s 2
f 17/48/42 1/49/93 20/27/43
s 4
f 25/50/52 2/30/94 21/26/49
s 5
f 23/51/54 3/52/95 30/34/55
s 7
f 31/53/64 4/35/96 27/31/61
